<svg xmlns="http://www.w3.org/2000/svg" width="32" height="32" viewBox="0 0 256 256"><path d="M222 128a6 6 0 0 1-6 6H104a6 6 0 0 1 0-12h112a6 6 0 0 1 6 6ZM104 70h112a6 6 0 0 0 0-12H104a6 6 0 0 0 0 12Zm112 116H104a6 6 0 0 0 0 12h112a6 6 0 0 0 0-12ZM42.7 65.4l7.3-3.7V108a6 6 0 0 0 12 0V52a6.1 6.1 0 0 0-2.8-5.1a6.2 6.2 0 0 0-5.9-.3l-16 8a6 6 0 1 0 5.4 10.8Zm27.9 103.8A20 20 0 0 0 54 138a19.9 19.9 0 0 0-18.4 12.2a6 6 0 1 0 11 4.7A8 8 0 0 1 62 158a7.6 7.6 0 0 1-1.3 4.4l-25.5 34a6 6 0 0 0-.6 6.3A6.2 6.2 0 0 0 40 206h28a6 6 0 0 0 0-12H52l18.4-24.6Z"/></svg>